<svg xmlns="http://www.w3.org/2000/svg" version="1.1" xmlns:xlink="http://www.w3.org/1999/xlink" xmlns:svgjs="http://svgjs.dev/svgjs" width="1000" height="999" viewBox="0 0 1000 999"><g transform="matrix(1,0,0,1,-0.215743440233382,-0.21552769679306039)"><svg viewBox="0 0 343 343" data-background-color="#0b022d" preserveAspectRatio="xMidYMid meet" height="999" width="1000" xmlns="http://www.w3.org/2000/svg" xmlns:xlink="http://www.w3.org/1999/xlink"><g id="tight-bounds" transform="matrix(1,0,0,1,0.0740000000000407,0.07400000000001228)"><svg viewBox="0 0 342.85155851775386 342.85155851775386" height="342.85155851775386" width="342.85155851775386"><g><svg></svg></g><g><svg viewBox="0 0 342.85155851775386 342.85155851775386" height="342.85155851775386" width="342.85155851775386"><g><path d="M0 171.426c0-94.676 76.75-171.426 171.426-171.426 94.676 0 171.426 76.75 171.426 171.426 0 94.676-76.75 171.426-171.426 171.426-94.676 0-171.426-76.75-171.426-171.426zM171.426 337.88c91.93 0 166.454-74.524 166.454-166.454 0-91.93-74.524-166.454-166.454-166.454-91.93 0-166.454 74.524-166.454 166.454 0 91.93 74.524 166.454 166.454 166.454z" data-fill-palette-color="tertiary" fill="#f7fff7" stroke="transparent"></path><ellipse rx="164.56874808852186" ry="164.56874808852186" cx="171.42577925887693" cy="171.42577925887693" fill="#f7fff7" stroke="transparent" stroke-width="0" fill-opacity="1" data-fill-palette-color="tertiary"></ellipse></g><g transform="matrix(1,0,0,1,64.84655864529837,99.2577098045063)"><svg viewBox="0 0 213.1584412271571 144.33613890874125" height="144.33613890874125" width="213.1584412271571"><g><svg viewBox="0 0 213.1584412271571 144.33613890874125" height="144.33613890874125" width="213.1584412271571"><g><svg viewBox="0 0 213.1584412271571 144.33613890874125" height="144.33613890874125" width="213.1584412271571"><g transform="matrix(1,0,0,1,0,89.20552432431313)"><svg viewBox="0 0 213.1584412271571 55.13061458442813" height="55.13061458442813" width="213.1584412271571"><g id="textblocktransform"><svg viewBox="0 0 213.1584412271571 55.13061458442813" height="55.13061458442813" width="213.1584412271571" id="textblock"><g><svg viewBox="0 0 213.1584412271571 55.13061458442813" height="55.13061458442813" width="213.1584412271571"><g transform="matrix(1,0,0,1,0,0)"><svg width="213.1584412271571" viewBox="2.5 -41.04999923706055 160.63999938964844 41.54999923706055" height="55.13061458442813" data-palette-color="#0b022d"><path d="M22.25 0L15.6-8.4 13.8-6.45 13.8 0 2.5 0 2.5-37.1 13.8-37.1 13.8-19.4 21.65-27.35 35-27.35 23.7-15.5 35.9 0 22.25 0ZM38.15 0L38.15-27.35 49.45-27.35 49.45 0 38.15 0ZM43.8-29.55Q40.75-29.55 38.87-31.18 37-32.8 37-35.3L37-35.3Q37-37.8 38.87-39.43 40.75-41.05 43.8-41.05L43.8-41.05Q46.9-41.05 48.75-39.5 50.6-37.95 50.6-35.5L50.6-35.5Q50.6-32.9 48.75-31.23 46.9-29.55 43.8-29.55L43.8-29.55ZM65.2-24.4Q68.2-27.85 74.05-27.85L74.05-27.85 74.05-17.85Q72.7-18.05 71.55-18.05L71.55-18.05Q65.75-18.05 65.75-12.15L65.75-12.15 65.75 0 54.45 0 54.45-27.35 65.2-27.35 65.2-24.4ZM95.44-8.8L98.14-0.95Q95.59 0.5 91.19 0.5L91.19 0.5Q85.44 0.5 82.34-2.27 79.24-5.05 79.24-10.6L79.24-10.6 79.24-17.6 75.49-17.6 75.49-25.85 79.24-25.85 79.24-33.5 90.54-33.5 90.54-25.85 96.14-25.85 96.14-17.6 90.54-17.6 90.54-10.7Q90.54-9.45 91.19-8.75 91.84-8.05 92.89-8.05L92.89-8.05Q94.34-8.05 95.44-8.8L95.44-8.8ZM113.24-27.85Q120.44-27.85 124.24-24.63 128.04-21.4 128.04-14.7L128.04-14.7 128.04 0 117.54 0 117.54-3.6Q115.59 0.5 109.79 0.5L109.79 0.5Q106.54 0.5 104.27-0.63 101.99-1.75 100.82-3.68 99.64-5.6 99.64-8L99.64-8Q99.64-12.05 102.74-14.15 105.84-16.25 112.14-16.25L112.14-16.25 116.69-16.25Q116.14-19.45 111.54-19.45L111.54-19.45Q109.69-19.45 107.79-18.88 105.89-18.3 104.54-17.3L104.54-17.3 100.94-24.75Q103.29-26.2 106.62-27.03 109.94-27.85 113.24-27.85L113.24-27.85ZM113.19-6.3Q114.39-6.3 115.34-6.95 116.29-7.6 116.74-8.9L116.74-8.9 116.74-10.8 113.94-10.8Q110.49-10.8 110.49-8.5L110.49-8.5Q110.49-7.55 111.22-6.93 111.94-6.3 113.19-6.3L113.19-6.3ZM151.94-27.85Q156.99-27.85 160.06-24.8 163.14-21.75 163.14-15.6L163.14-15.6 163.14 0 151.84 0 151.84-13.65Q151.84-18.35 148.49-18.35L148.49-18.35Q146.59-18.35 145.41-17.03 144.24-15.7 144.24-12.85L144.24-12.85 144.24 0 132.94 0 132.94-27.35 143.69-27.35 143.69-24.65Q145.29-26.25 147.39-27.05 149.49-27.85 151.94-27.85L151.94-27.85Z" opacity="1" transform="matrix(1,0,0,1,0,0)" fill="#0b022d" class="undefined-text-0" data-fill-palette-color="quaternary" id="text-0"></path></svg></g></svg></g></svg></g></svg></g><g transform="matrix(1,0,0,1,86.63828143689368,0)"><svg viewBox="0 0 39.88187835336976 76.19050935567968" height="76.19050935567968" width="39.88187835336976"><g><svg xmlns="http://www.w3.org/2000/svg" xmlns:xlink="http://www.w3.org/1999/xlink" version="1.1" x="0" y="0" viewBox="19.682355880737305 3.5 35.572967529296875 67.95874786376953" enable-background="new 0 0 75 75" xml:space="preserve" height="76.19050935567968" width="39.88187835336976" class="icon-icon-0" data-fill-palette-color="quaternary" id="icon-0"><path d="M21.2 59.5c-1.1-2.6-4.2-12.2 3.8-24.7C36 18 31.7 3.5 31.7 3.5S46 8.8 41.7 37.5c-1 6.5-0.9 9 2 9.4 5 0.7 3.1-19.7 3.1-19.7s3.9 2 6.8 12.1c1.5 5.3 1.8 9.5 1.6 12.5-1 18.1-16.5 19.6-16.5 19.6S26.9 73 21.2 59.5z" fill="#0b022d" data-fill-palette-color="quaternary"></path></svg></g></svg></g><g></g></svg></g></svg></g></svg></g></svg></g><defs></defs></svg><rect width="342.85155851775386" height="342.85155851775386" fill="none" stroke="none" visibility="hidden"></rect></g></svg></g></svg>