<svg xmlns="http://www.w3.org/2000/svg" version="1.1" xmlns:xlink="http://www.w3.org/1999/xlink" xmlns:svgjs="http://svgjs.dev/svgjs" width="1000" height="999" viewBox="0 0 1000 999"><g transform="matrix(1,0,0,1,-0.215743440233382,-0.21552769679306039)"><svg viewBox="0 0 343 343" data-background-color="#ffffff" preserveAspectRatio="xMidYMid meet" height="999" width="1000" xmlns="http://www.w3.org/2000/svg" xmlns:xlink="http://www.w3.org/1999/xlink"><g id="tight-bounds" transform="matrix(1,0,0,1,0.0740000000000407,0.07400000000001228)"><svg viewBox="0 0 342.85155851775386 342.85155851775386" height="342.85155851775386" width="342.85155851775386"><g><svg></svg></g><g><svg viewBox="0 0 342.85155851775386 342.85155851775386" height="342.85155851775386" width="342.85155851775386"><g><path d="M0 171.426c0-94.676 76.75-171.426 171.426-171.426 94.676 0 171.426 76.75 171.426 171.426 0 94.676-76.75 171.426-171.426 171.426-94.676 0-171.426-76.75-171.426-171.426zM171.426 339.456c92.801 0 168.03-75.23 168.03-168.03 0-92.801-75.23-168.03-168.03-168.031-92.801 0-168.03 75.23-168.031 168.031 0 92.801 75.23 168.03 168.031 168.03z" data-fill-palette-color="tertiary" fill="#27292a" stroke="transparent"></path><ellipse rx="164.56874808852186" ry="164.56874808852186" cx="171.42577925887693" cy="171.42577925887693" fill="#27292a" stroke="transparent" stroke-width="0" fill-opacity="1" data-fill-palette-color="tertiary"></ellipse></g><g transform="matrix(1,0,0,1,64.84655864529837,127.40287792533516)"><svg viewBox="0 0 213.1584412271571 88.04580266708355" height="88.04580266708355" width="213.1584412271571"><g><svg viewBox="0 0 213.1584412271571 88.04580266708355" height="88.04580266708355" width="213.1584412271571"><g><svg viewBox="0 0 213.15844122715714 88.04580266708356" height="88.04580266708355" width="213.1584412271571"><g transform="matrix(1,0,0,1,0,50.395534515547645)"><svg viewBox="0 0 213.15844122715714 37.65026815153591" height="37.65026815153591" width="213.15844122715714"><g id="textblocktransform"><svg viewBox="0 0 213.15844122715714 37.65026815153591" height="37.65026815153591" width="213.15844122715714" id="textblock"><g><svg viewBox="0 0 213.15844122715714 37.65026815153591" height="37.65026815153591" width="213.15844122715714"><g transform="matrix(1,0,0,1,0,0)"><svg width="213.15844122715714" viewBox="0 -35.75 202.38999938964844 35.75" height="37.65026815153591" data-palette-color="#ffffff"><path d="M29.8-2.15L36.8-2.15 36.8 0 0 0 0-2.15 10.75-2.15Q6.75-4.5 4.48-8.53 2.2-12.55 2.2-17.65L2.2-17.65Q2.2-25.35 7.53-30.55 12.85-35.75 20.55-35.75L20.55-35.75Q29.15-35.75 34.95-29.2L34.95-29.2 30.1-23.7Q26.4-28.3 20.9-28.3L20.9-28.3Q16.5-28.3 13.38-25.43 10.25-22.55 10.25-17.68 10.25-12.8 13.2-9.85 16.15-6.9 20.35-6.9L20.35-6.9Q26.1-6.9 29.75-11.45L29.75-11.45 34.75-6.3Q32.55-3.75 29.8-2.15L29.8-2.15ZM70.6-2.15L74.9-2.15 74.9 0 62.8 0 62.8-13.75 48.9-13.75 48.9 0 36.8 0 36.8-2.15 41.1-2.15 41.1-34.95 48.9-34.95 48.9-20.35 62.8-20.35 62.8-34.95 70.6-34.95 70.6-2.15ZM87-2.15L91.3-2.15 91.3 0 74.9 0 74.9-2.15 79.2-2.15 79.2-34.95 87-34.95 87-2.15ZM90.74-2.15L95.59-2.15 95.59-34.95 108.84-34.95Q116.99-34.95 120.47-32.2 123.94-29.45 123.94-23.35L123.94-23.35Q123.94-14.95 117.29-12.5L117.29-12.5 124.59-2.15 129.29-2.15 129.29 0 116.54 0 108.79-11.15 103.39-11.15 103.39 0 90.74 0 90.74-2.15ZM109.09-17.9Q113.09-17.9 114.54-19.2 115.99-20.5 115.99-23.33 115.99-26.15 114.49-27.2 112.99-28.25 109.24-28.25L109.24-28.25 103.39-28.25 103.39-17.9 109.09-17.9ZM164.19-2.15L169.99-2.15 169.99 0 156.84 0 153.59-7.55 138.94-7.55 135.69 0 122.54 0 122.54-2.15 128.29-2.15 142.49-34.95 150.04-34.95 164.19-2.15ZM150.64-14.4L146.29-24.55 141.89-14.4 150.64-14.4ZM195.69-2.15L202.39-2.15 202.39 0 164.89 0 164.89-2.15 175.74-2.15Q171.74-4.5 169.46-8.53 167.19-12.55 167.19-17.65L167.19-17.65Q167.19-25.35 172.51-30.55 177.84-35.75 185.36-35.75 192.89-35.75 198.44-30.8L198.44-30.8 194.39-24.95Q192.04-27 190.06-27.78 188.09-28.55 185.79-28.55L185.79-28.55Q181.34-28.55 178.29-25.53 175.24-22.5 175.24-17.55 175.24-12.6 178.16-9.63 181.09-6.65 185.14-6.65 189.19-6.65 191.89-8.2L191.89-8.2 191.89-17.8 199.74-17.8 199.74-5.4Q198.04-3.5 195.69-2.15L195.69-2.15Z" opacity="1" transform="matrix(1,0,0,1,0,0)" fill="#ffffff" class="undefined-text-0" data-fill-palette-color="quaternary" id="text-0"></path></svg></g></svg></g></svg></g></svg></g><g transform="matrix(1,0,0,1,40.71326227438702,0)"><svg viewBox="0 0 131.7319166783831 41.50720981140565" height="41.50720981140565" width="131.7319166783831"><g><svg xmlns="http://www.w3.org/2000/svg" xmlns:xlink="http://www.w3.org/1999/xlink" version="1.1" x="0" y="0" viewBox="10.825594902038574 38.09199905395508 80.66622924804688 25.41699981689453" enable-background="new 0 0 100 100" xml:space="preserve" height="41.50720981140565" width="131.7319166783831" class="icon-icon-0" data-fill-palette-color="quaternary" id="icon-0"><path d="M31.376 42.592c-7.333 0-11.834 2.75-11.834 4.625s1.584 3.625 9.667 3.625 24.5-10.25 41.25-10.25c17.083 0.002 17.083 8.583 17.083 8.583s-2.254-1.958-13.583-1.958c-16.917 0-32.667 9.125-43.874 9.125-11.209 0-14.108-5.008-14.108-8.925 0-3.375 4.399-9.325 15.232-9.325s12.667 6.583 12.667 6.583S38.709 42.592 31.376 42.592zM10.876 48.759c0 0-2.167 14.75 21.916 14.75 24.084 0 33.251-10.167 51.918-10.167 5.654 0.12 6.666 2.792 6.666 2.792s2.25-7.375-13.084-7.375c-15.332 0-33.308 9.917-47.832 9.917C15.935 58.676 10.876 48.759 10.876 48.759z" fill="#ffffff" data-fill-palette-color="quaternary"></path></svg></g></svg></g><g></g></svg></g></svg></g></svg></g></svg></g><defs></defs></svg><rect width="342.85155851775386" height="342.85155851775386" fill="none" stroke="none" visibility="hidden"></rect></g></svg></g></svg>