<svg xmlns="http://www.w3.org/2000/svg" version="1.1" xmlns:xlink="http://www.w3.org/1999/xlink" xmlns:svgjs="http://svgjs.dev/svgjs" width="1000" height="623" viewBox="0 0 1000 623"><g transform="matrix(1,0,0,1,-0.6060606060606233,0.2522267206477409)"><svg viewBox="0 0 396 247" data-background-color="#bb84e8" preserveAspectRatio="xMidYMid meet" height="623" width="1000" xmlns="http://www.w3.org/2000/svg" xmlns:xlink="http://www.w3.org/1999/xlink"><g id="tight-bounds" transform="matrix(1,0,0,1,0.2400000000000091,-0.09999999999999432)"><svg viewBox="0 0 395.52 247.2" height="247.2" width="395.52"><g><svg></svg></g><g><svg viewBox="0 0 395.52 247.2" height="247.2" width="395.52"><g transform="matrix(1,0,0,1,75.54432,79.9110555262219)"><svg viewBox="0 0 244.43135999999998 87.37788894755619" height="87.37788894755619" width="244.43135999999998"><g><svg viewBox="0 0 244.43135999999998 87.37788894755619" height="87.37788894755619" width="244.43135999999998"><g><svg viewBox="0 0 244.43135999999998 87.37788894755619" height="87.37788894755619" width="244.43135999999998"><g><svg viewBox="0 0 244.43135999999998 87.37788894755619" height="87.37788894755619" width="244.43135999999998"><g id="textblocktransform"><svg viewBox="0 0 244.43135999999998 87.37788894755619" height="87.37788894755619" width="244.43135999999998" id="textblock"><g><svg viewBox="0 0 244.43135999999998 87.37788894755619" height="87.37788894755619" width="244.43135999999998"><g transform="matrix(1,0,0,1,0,0)"><svg width="244.43135999999998" viewBox="0.699999988079071 -38.75 140.13999938964844 50.099998474121094" height="87.37788894755619" data-palette-color="#7a26c1"><path d="M28.45-8.7Q27.7-6.45 25.48-4.17 23.25-1.9 19.88-0.43 16.5 1.05 12.5 1.05L12.5 1.05Q6.4 1.05 3.55-1.93 0.7-4.9 0.7-9.55L0.7-9.55Q0.7-16.15 3.65-21.53 6.6-26.9 11.6-29.98 16.6-33.05 22.4-33.05L22.4-33.05Q24.7-33.05 26.6-32 28.5-30.95 29.6-28.98 30.7-27 30.7-24.35L30.7-24.35Q30.7-22.85 29.58-21.8 28.45-20.75 26.55-20.75L26.55-20.75Q25.05-20.75 24.53-21.55 24-22.35 24-23.6L24-23.6 24.05-25.2Q24.05-26.1 23.05-26.95 22.05-27.8 21.2-27.8L21.2-27.8Q18.4-27.8 15.05-25.28 11.7-22.75 9.4-18.48 7.1-14.2 7.1-9.2L7.1-9.2Q7.1-6.9 8.9-5.45 10.7-4 13.45-4L13.45-4Q14.35-4 15.8-4.6 17.25-5.2 18.48-6.1 19.7-7 20.1-7.85L20.1-7.85Q20.7-9.1 21.8-10.65 22.9-12.2 24-12.2L24-12.2Q26.55-12.2 27.48-11.1 28.4-10 28.45-8.7L28.45-8.7ZM39.85-16.5Q41-18.75 43.02-20.35 45.05-21.95 47.15-22.8 49.25-23.65 50.6-23.65L50.6-23.65Q53.2-23.65 54.35-22.68 55.5-21.7 55.5-19.6L55.5-19.6Q52.55-11.9 51.6-3L51.6-3 52.3-0.55Q51.7 0.6 50.7 1.28 49.7 1.95 47.65 1.95L47.65 1.95Q46.45 1.95 45.9 1.15 45.35 0.35 45.35-0.85L45.35-0.85Q45.35-4.2 46.32-8.22 47.3-12.25 48.6-16.45L48.6-16.45Q49.1-18.05 49.1-18.1L49.1-18.1Q49.1-18.8 48.3-18.8L48.3-18.8Q47.25-18.8 45.25-17.25 43.25-15.7 41.1-12.03 38.95-8.35 37.5-2.4L37.5-2.4Q37.45-2.15 37.25-1.35 37.05-0.55 36.35-0.2 35.65 0.15 34.2 0.15L34.2 0.15Q32.45 0.15 31.5-0.23 30.55-0.6 30.55-1.7L30.55-1.7Q37.1-27.45 38.65-33.9L38.65-33.9Q38.6-34.55 38.57-35.63 38.55-36.7 38.55-37.3L38.55-37.3Q38.7-38 39.62-38.38 40.55-38.75 41.5-38.75L41.5-38.75Q43.1-38.75 44.2-37.9 45.3-37.05 45.4-35.75L45.4-35.75 39.85-16.5ZM64.15-29.7Q64.15-31.25 65.12-32.45 66.1-33.65 67.85-33.65L67.85-33.65Q69.7-33.65 71.07-32.5 72.45-31.35 72.45-29.9L72.45-29.9Q72.45-28.45 71.05-27.4 69.65-26.35 67.8-26.35L67.8-26.35Q66-26.35 65.07-27.28 64.15-28.2 64.15-29.7L64.15-29.7ZM69.4-20.85Q66.75-10.05 65.35-4.6L65.35-4.6Q65.15-3.8 65.15-2.85L65.15-2.85 65.2-1.45Q65.2-0.6 64.67-0.25 64.15 0.1 62.45 0.15L62.45 0.15Q60.8 0.15 59.95-0.2 59.1-0.55 59.1-1.7L59.1-1.7Q59.1-2.25 60.37-7.55 61.65-12.85 63.85-21.35L63.85-21.35 62.7-22.85Q62.55-23 62.55-23.2L62.55-23.2Q62.55-23.7 63.65-24.03 64.75-24.35 66.7-24.35L66.7-24.35Q68.4-24.35 68.87-23.38 69.35-22.4 69.4-20.85L69.4-20.85ZM77.99-1.9Q77.94-1.6 77.77-0.73 77.59 0.15 76.92 0.5 76.24 0.85 74.79 0.85L74.79 0.85Q73.14 0.85 72.39 0.5 71.64 0.15 71.64-1L71.64-1 74.04-10.55Q76.04-18.8 76.69-21.05L76.69-21.05 75.44-22.55Q75.29-22.7 75.29-22.9L75.29-22.9Q75.29-23.4 76.39-23.73 77.49-24.05 79.44-24.05L79.44-24.05Q81.19-24.05 81.79-23.08 82.39-22.1 82.54-20.55L82.54-20.55 82.19-19.25Q83.79-21.2 85.92-22.48 88.04-23.75 89.69-23.75L89.69-23.75Q91.84-23.75 93.04-23 94.24-22.25 94.24-21.05L94.24-21.05Q94.24-20 93.52-18.88 92.79-17.75 91.69-16.98 90.59-16.2 89.54-16.1L89.54-16.1Q88.54-16.1 88.19-16.35 87.84-16.6 87.84-17.1L87.84-17.1 88.14-18.75Q84.14-17.65 80.89-13.45L80.89-13.45 77.99-1.9ZM111.79-2.6Q111.89-1.3 112.14-0.25L112.14-0.25Q112.04 0.05 111.27 0.35 110.49 0.65 109.94 0.65L109.94 0.65Q108.14 0.65 107.37 0.13 106.59-0.4 106.59-1.45L106.59-1.45Q106.59-2.45 106.79-3.45L106.79-3.45Q105.69-1.95 103.57-0.98 101.44 0 100.14 0L100.14 0Q96.79 0 94.57-1.95 92.34-3.9 92.34-8.2L92.34-8.2Q92.34-12.25 94.27-15.83 96.19-19.4 99.59-21.58 102.99-23.75 107.14-23.75L107.14-23.75Q107.94-23.75 109.24-23.33 110.54-22.9 111.87-21.88 113.19-20.85 114.09-19.25L114.09-19.25Q114.49-19.25 115.04-18.85 115.59-18.45 115.59-18.05L115.59-18.05Q115.59-17.6 115.44-17.15L115.44-17.15 111.79-2.6ZM109.54-16.6Q109.24-17.7 108.37-18.45 107.49-19.2 106.79-19.2L106.79-19.2Q104.49-19.2 102.47-17.57 100.44-15.95 99.19-13.55 97.94-11.15 97.94-9L97.94-9Q97.94-6.9 98.44-5.55 98.94-4.2 100.39-4.2L100.39-4.2Q101.64-4.2 103.27-4.95 104.89-5.7 106.17-6.98 107.44-8.25 107.84-9.65L107.84-9.65 109.54-16.6ZM123.24 11.35Q120.94 11.35 118.91 10.35 116.89 9.35 115.51 7.78 114.14 6.2 113.54 4.6L113.54 4.6Q113.59 3.7 114.41 2.83 115.24 1.95 117.29 1.95L117.29 1.95Q117.94 1.95 118.41 2.45 118.89 2.95 119.49 4.05L119.49 4.05Q120.29 5.55 121.16 6.38 122.04 7.2 123.59 7.2L123.59 7.2Q125.34 7.2 126.96 5.83 128.59 4.45 129.76 2.1 130.94-0.25 131.39-3.1L131.39-3.1Q130.29-1.6 128.86-0.8 127.44 0 126.19 0L126.19 0Q122.19 0 119.86-1.78 117.54-3.55 117.54-8.1L117.54-8.1Q117.54-12.2 119.81-15.75 122.09-19.3 125.89-21.4 129.69-23.5 134.04-23.5L134.04-23.5Q136.89-23.5 138.26-22.35 139.64-21.2 139.94-19.45L139.94-19.45Q140.79-19.05 140.84-18.65L140.84-18.65Q140.84-18.5 140.64-17.6L140.64-17.6Q139.69-13.5 136.64-1.4L136.64-1.4 136.09 0.8Q134.84 5.65 131.31 8.5 127.79 11.35 123.24 11.35L123.24 11.35ZM134.54-18.35Q134.14-19.05 133.76-19.25 133.39-19.45 132.64-19.45L132.64-19.45Q130.29-19.45 128.09-17.93 125.89-16.4 124.54-13.98 123.19-11.55 123.19-9L123.19-9Q123.19-7.15 123.86-5.8 124.54-4.45 126.04-4.25L126.04-4.25Q128.04-4.6 129.81-6.05 131.59-7.5 132.24-9.8L132.24-9.8 134.54-18.35Z" opacity="1" transform="matrix(1,0,0,1,0,0)" fill="#7a26c1" class="undefined-text-0" data-fill-palette-color="primary" id="text-0"></path></svg></g></svg></g></svg></g></svg></g></svg></g></svg></g></svg></g><g><path d="M245.816 0c68.262 0 123.6 55.338 123.6 123.6 0 68.262-55.338 123.6-123.6 123.6-48.899 0-91.165-28.396-111.21-69.597h4.4c19.735 38.955 60.154 65.657 106.81 65.657 66.086 0 119.66-53.574 119.66-119.66 0-66.086-53.574-119.66-119.66-119.66-46.656 0-87.075 26.702-106.81 65.657l-4.4 0c20.044-41.201 62.311-69.597 111.21-69.597z" fill="#7a26c1" stroke="transparent" data-fill-palette-color="tertiary"></path></g></svg></g><defs></defs></svg><rect width="395.52" height="247.2" fill="none" stroke="none" visibility="hidden"></rect></g></svg></g></svg>